# xmcd CD database file
#
# Track frame offsets:
#	150
#	22749
#	41373
#	59786
#	76550
#	99486
#	115893
#	137833
#
# Disc length: 2098 seconds
#
# Revision: 2
# Processed by: cddbd v1.5.1PL0 Copyright (c) Steve Scherf et al.
# Submitted via: CDex 1.51
#
DISCID=5b083008
DTITLE=Jelly - Taweet
DYEAR=2005
DGENRE=Punjabi Bhangra
TTITLE0=Rumaal
TTITLE1=Taweet
TTITLE2=Shaher Tera
TTITLE3=Begaana Putt
TTITLE4=Naina Di Goli
TTITLE5=Sun Sohniye
TTITLE6=Yaar Pardesi
TTITLE7=Daru
EXTD=YEAR: 2005
EXTT0=
EXTT1=
EXTT2=
EXTT3=
EXTT4=
EXTT5=
EXTT6=
EXTT7=
PLAYORDER=
